<svg id="Capa_1" enable-background="new 0 0 512 512" height="512" viewBox="0 0 512 512" width="512" xmlns="http://www.w3.org/2000/svg"><g><g><path d="m256.18 159.56c-4.18 0-7.998-2.71-9.405-6.636-1.389-3.874-.2-8.32 2.936-10.987 3.271-2.781 8.099-3.142 11.746-.873 3.494 2.175 5.347 6.405 4.533 10.446-.93 4.615-5.093 8.05-9.81 8.05z"/><path d="m470.333 67.053h-428.666c-22.976 0-41.667 18.691-41.667 41.666v294.563c0 22.975 18.691 41.666 41.667 41.666h428.667c22.975 0 41.667-18.691 41.667-41.666v-294.563c-.001-22.975-18.692-41.666-41.668-41.666zm0 357.894h-428.666c-11.947 0-21.667-9.72-21.667-21.666v-243.723h190.794c5.523 0 10-4.478 10-10s-4.477-10-10-10h-190.794v-30.839c0-11.946 9.72-21.666 21.667-21.666h428.667c11.947 0 21.667 9.72 21.667 21.666v30.839h-190.794c-5.523 0-10 4.478-10 10s4.477 10 10 10h190.793v243.724c0 11.946-9.72 21.665-21.667 21.665z"/><path d="m349.465 192.264c-.49 0-186.487.001-186.487.001-.026 0-.051-.001-.076-.001-56.95 0-103.282 46.333-103.282 103.283 0 56.949 46.332 103.281 103.282 103.281h186.564c56.95 0 103.282-46.332 103.282-103.281 0-56.95-46.332-103.283-103.283-103.283zm8.099 73.7c12.993 3.562 22.568 15.475 22.568 29.582s-9.575 26.021-22.568 29.582zm-204.663 58.575c-12.015-4.155-20.667-15.583-20.667-28.993 0-13.409 8.652-24.837 20.667-28.993zm-73.281-28.992c0-42.539 32.056-77.731 73.282-82.687v33.01c-23.165 4.656-40.667 25.161-40.667 49.676s17.502 45.02 40.667 49.676v33.01c-41.226-4.955-73.282-40.147-73.282-82.685zm93.281-83.282h164.663v166.563h-164.663zm184.663 166.173v-32.872c24.102-3.888 42.568-24.838 42.568-50.02s-18.466-46.132-42.568-50.02v-32.872c42.135 4.086 75.184 39.703 75.184 82.893 0 43.188-33.049 78.805-75.184 82.891z"/></g></g></svg>